<svg width="1440" height="389" viewBox="0 0 1440 389" fill="none" xmlns="http://www.w3.org/2000/svg">
<path d="M1440 275.912L1440 76.6719L0 76.6719L-1.10516e-05 293.265C-1.23197e-05 318.118 20.1472 338.265 45 338.265L198.176 338.265C223.029 338.265 243.176 318.118 243.176 293.265L243.176 260.881C243.176 236.028 263.323 215.881 288.176 215.881L537.795 215.881C562.647 215.881 582.795 236.028 582.795 260.881L582.795 343.5C582.795 368.353 602.942 388.5 627.795 388.5L767.037 388.5C791.89 388.5 812.037 368.353 812.037 343.5L812.037 209.052C812.037 184.199 832.184 164.052 857.037 164.052L1095.33 164.052C1120.19 164.052 1140.33 184.199 1140.33 209.052L1140.33 293.01C1140.33 317.962 1160.64 338.15 1185.59 338.009L1379.35 336.911C1412.9 336.721 1440 309.466 1440 275.912Z" fill="#A2D2FF"/>
<rect x="6.10352e-05" width="1439" height="88.237" fill="#A2D2FF"/>
</svg>
